<?xml version="1.0" encoding="UTF-8" standalone="no"?>
<!-- Created with Inkscape (http://www.inkscape.org/) -->

<svg
   xmlns:dc="http://purl.org/dc/elements/1.1/"
   xmlns:cc="http://creativecommons.org/ns#"
   xmlns:rdf="http://www.w3.org/1999/02/22-rdf-syntax-ns#"
   xmlns:svg="http://www.w3.org/2000/svg"
   xmlns="http://www.w3.org/2000/svg"
   xmlns:sodipodi="http://sodipodi.sourceforge.net/DTD/sodipodi-0.dtd"
   xmlns:inkscape="http://www.inkscape.org/namespaces/inkscape"
   id="svg4605"
   version="1.1"
   inkscape:version="0.48.2 r9819"
   width="312"
   height="314"
   sodipodi:docname="icon2.png">
  <metadata
     id="metadata4611">
    <rdf:RDF>
      <cc:Work
         rdf:about="">
        <dc:format>image/svg+xml</dc:format>
        <dc:type
           rdf:resource="http://purl.org/dc/dcmitype/StillImage" />
        <dc:title></dc:title>
      </cc:Work>
    </rdf:RDF>
  </metadata>
  <defs
     id="defs4609" />
  <sodipodi:namedview
     pagecolor="#ffffff"
     bordercolor="#666666"
     borderopacity="1"
     objecttolerance="10"
     gridtolerance="10"
     guidetolerance="10"
     inkscape:pageopacity="0"
     inkscape:pageshadow="2"
     inkscape:window-width="640"
     inkscape:window-height="480"
     id="namedview4607"
     showgrid="false"
     inkscape:zoom="0.75159236"
     inkscape:cx="156"
     inkscape:cy="157"
     inkscape:window-x="0"
     inkscape:window-y="0"
     inkscape:window-maximized="0"
     inkscape:current-layer="svg4605" />
  <g
     id="g4615"
     transform="translate(1.3305066,0)">
    <path
       style="fill:#8b8b8d"
       d="M 0,157 0,0 l 156,0 156,0 0,157 0,157 -156,0 -156,0 0,-157 z"
       id="path4631"
       inkscape:connector-curvature="0" />
    <path
       style="fill:#b6b606"
       d="M 0,157 0,0 l 156,0 156,0 0,157 0,157 -156,0 -156,0 0,-157 z m 188,0.0165 c -0.41925,-24.3938 -0.74225,-29.24507 -2,-30.039 -2.33443,-1.47357 -59.31244,-1.26504 -60.8,0.22252 -0.87844,0.87844 -1.2,9.01 -1.2,30.34501 0,26.86052 0.14194,29.27347 1.81089,30.78385 1.57102,1.42175 5.51187,1.67409 29.75,1.90499 27.52966,0.26225 27.97575,0.23397 30.43911,-1.92954 l 2.5,-2.19569 -0.5,-29.09214 z m -58.33333,27.31685 C 129.3,183.96667 129,171.86481 129,157.44032 c 0,-22.9925 0.19504,-26.30119 1.58179,-26.83333 0.86998,-0.33385 12.47998,-0.60699 25.8,-0.60699 17.50305,0 24.55094,0.33273 25.41821,1.2 1.70727,1.70727 1.70727,50.89273 0,52.6 -1.30047,1.30047 -50.85921,1.80746 -52.13333,0.53333 z"
       id="path4629"
       inkscape:connector-curvature="0" />
    <path
       style="fill:#636164"
       d="M 0,157 0,0 l 156,0 156,0 0,157 0,157 -156,0 -156,0 0,-157 z m 246.7158,91.7158 c 1.61329,-1.6133 1.81227,-4.49274 2.0772,-30.06048 0.285,-27.50369 0.2352,-28.34976 -1.82258,-30.9658 L 244.85484,185 216.42742,185 188,185 l 0,-27.92857 c 0,-24.05628 -0.21788,-28.14645 -1.57143,-29.5 -1.35689,-1.35689 -5.5619,-1.57143 -30.8,-1.57143 -21.4,0 -29.54998,0.32141 -30.42857,1.2 -0.87811,0.87811 -1.2,8.97139 -1.2,30.17126 0,25.55474 0.19517,29.18692 1.65499,30.8 1.52784,1.68825 3.79419,1.82874 29.5,1.82874 L 183,190 l 0,28.42742 0,28.42742 2.68952,2.11558 c 2.61604,2.05778 3.46211,2.10758 30.9658,1.82258 25.56774,-0.26493 28.44718,-0.46391 30.06048,-2.0772 z m -57.10242,-6.28093 c -1.07115,-2.79137 -0.69084,-47.42161 0.4218,-49.50061 0.98007,-1.83127 2.32453,-1.93344 25.25,-1.91895 13.31815,0.008 24.78522,0.37736 25.48237,0.81987 0.98083,0.62256 1.20703,6.55687 1,26.23468 L 241.5,243.5 l -25.63662,0.26665 c -22.72427,0.23636 -25.7063,0.0851 -26.25,-1.33178 z M 129.66667,184.33333 C 129.3,183.96667 129,171.86481 129,157.44032 c 0,-22.9925 0.19504,-26.30119 1.58179,-26.83333 0.86998,-0.33385 12.47998,-0.60699 25.8,-0.60699 17.50305,0 24.55094,0.33273 25.41821,1.2 1.70727,1.70727 1.70727,50.89273 0,52.6 -1.30047,1.30047 -50.85921,1.80746 -52.13333,0.53333 z"
       id="path4627"
       inkscape:connector-curvature="0" />
    <path
       style="fill:#00c900"
       d="M 0,157 0,0 l 156,0 156,0 0,157 0,157 -156,0 -156,0 0,-157 z m 246.68555,91.82569 2.31445,-2.17432 0,-29.1707 c 0,-28.3766 -0.0573,-29.22255 -2.10305,-31.07568 -1.93064,-1.74882 -4.36956,-1.94598 -29.75,-2.40499 L 189.5,183.5 l -0.14895,-27 -0.14895,-27 -2.6639,-2.75 -2.6639,-2.75 -28.01408,0 -28.01407,0 -2.92307,2.92308 -2.92308,2.92307 0,27.5002 0,27.5002 2.57549,3.06079 2.57548,3.06079 27.17452,0.26594 L 181.5,191.5 182,219.14695 c 0.45901,25.38044 0.65617,27.81936 2.40499,29.75 1.85273,2.04536 2.70137,2.10305 30.93555,2.10305 28.43005,0 29.07843,-0.045 31.34501,-2.17431 z M 190.23283,217.75 190.5,192.5 l 25.25,-0.26717 25.25,-0.26717 0,25.51717 0,25.51717 -25.51717,0 -25.51717,0 0.26717,-25.25 z m -59.78286,-36.01977 c -0.26799,-0.69838 -0.36637,-12.06088 -0.21861,-25.25 L 130.5,132.5 l 25.25,-0.26717 25.25,-0.26717 0,25.51717 0,25.51717 -25.03138,0 c -19.3105,0 -25.14275,-0.2902 -25.51865,-1.26977 z"
       id="path4625"
       inkscape:connector-curvature="0" />
    <path
       style="fill:#b70505"
       d="M 0,157 0,0 l 156,0 156,0 0,157 0,157 -156,0 -156,0 0,-157 z m 246.68555,91.82569 2.31445,-2.17432 0,-29.1707 c 0,-28.3766 -0.0573,-29.22255 -2.10305,-31.07568 -1.93064,-1.74882 -4.36956,-1.94598 -29.75,-2.40499 L 189.5,183.5 l -0.14895,-27 -0.14895,-27 -2.6639,-2.75 -2.6639,-2.75 -28.01408,0 -28.01407,0 -2.92307,2.92308 -2.92308,2.92307 0,27.5002 0,27.5002 2.57549,3.06079 2.57548,3.06079 27.17452,0.26594 L 181.5,191.5 182,219.14695 c 0.45901,25.38044 0.65617,27.81936 2.40499,29.75 1.85273,2.04536 2.70137,2.10305 30.93555,2.10305 28.43005,0 29.07843,-0.045 31.34501,-2.17431 z M 190.23283,217.75 190.5,192.5 l 25.25,-0.26717 25.25,-0.26717 0,25.51717 0,25.51717 -25.51717,0 -25.51717,0 0.26717,-25.25 z m -59.78286,-36.01977 c -0.26799,-0.69838 -0.36637,-12.06088 -0.21861,-25.25 L 130.5,132.5 l 25.25,-0.26717 25.25,-0.26717 0,25.51717 0,25.51717 -25.03138,0 c -19.3105,0 -25.14275,-0.2902 -25.51865,-1.26977 z M 125.8,247.8 c 0.8745,-0.8745 1.2,-8.5765 1.2,-28.39424 l 0,-27.19425 -2.90121,-3.10575 L 121.19758,186 94.59879,186 C 69.333333,186 67.899745,186.10026 66,188 c -1.90363,1.90363 -2,3.33333 -2,29.67126 0,24.34507 0.198935,27.89108 1.654988,29.5 1.52995,1.69058 3.819169,1.82874 30.3,1.82874 20.946122,0 28.967532,-0.32252 29.845012,-1.2 z M 68.682656,244.34932 C 68.307195,243.97386 68,232.09677 68,217.95578 c 0,-20.57824 0.274114,-25.93839 1.373115,-26.85047 0.968554,-0.80383 8.99723,-1.06088 27.25,-0.87245 L 122.5,190.5 l 0,27 0,27 -26.567344,0.26599 c -14.612039,0.14629 -26.874539,-0.0412 -27.25,-0.41667 z"
       id="path4623"
       inkscape:connector-curvature="0" />
    <path
       style="fill:#0505b7"
       d="M 0,157 0,0 l 156,0 156,0 0,157 0,157 -156,0 -156,0 0,-157 z m 246.68555,91.82569 2.31445,-2.17432 0,-29.1707 c 0,-28.3766 -0.0573,-29.22255 -2.10305,-31.07568 -1.93064,-1.74882 -4.36956,-1.94598 -29.75,-2.40499 L 189.5,183.5 l 0,-26 0,-26 27.83979,-0.5 c 27.77489,-0.49883 27.84424,-0.5055 29.75,-2.86078 C 248.86938,125.93986 249,123.84477 249,97.5 249,71.154156 248.86944,69.060229 247.0896,66.860784 L 245.1792,64.5 216.77912,64.207 c -27.62967,-0.285053 -28.47303,-0.235612 -31.0896,1.82258 L 183,68.14516 183,96.07258 183,124 l -27.57692,0 -27.57693,0 -2.92307,2.92308 -2.92308,2.92307 0,27.5002 0,27.5002 2.57549,3.06079 2.57548,3.06079 27.17452,0.26594 L 181.5,191.5 182,219.14695 c 0.45901,25.38044 0.65617,27.81936 2.40499,29.75 1.85273,2.04536 2.70137,2.10305 30.93555,2.10305 28.43005,0 29.07843,-0.045 31.34501,-2.17431 z M 190.23283,217.75 190.5,192.5 l 25.25,-0.26717 25.25,-0.26717 0,25.51717 0,25.51717 -25.51717,0 -25.51717,0 0.26717,-25.25 z m -59.78286,-36.01977 c -0.26799,-0.69838 -0.36637,-12.06088 -0.21861,-25.25 L 130.5,132.5 l 25.25,-0.26717 25.25,-0.26717 0,25.51717 0,25.51717 -25.03138,0 c -19.3105,0 -25.14275,-0.2902 -25.51865,-1.26977 z m 60.2167,-58.3969 C 190.3,122.96667 190,111.31481 190,97.440322 190,75.359686 190.19725,72.138287 191.58179,71.606989 194.74826,70.391901 239.53148,70.931476 240.8,72.2 c 0.86854,0.868538 1.2,8.020669 1.2,25.893011 0,21.594309 -0.1985,24.769179 -1.58179,25.299999 -2.16169,0.82952 -48.91843,0.77343 -49.75154,-0.0597 z M 125.8,247.8 c 0.8745,-0.8745 1.2,-8.5765 1.2,-28.39424 l 0,-27.19425 -2.90121,-3.10575 L 121.19758,186 94.59879,186 C 69.333333,186 67.899745,186.10026 66,188 c -1.90363,1.90363 -2,3.33333 -2,29.67126 0,24.34507 0.198935,27.89108 1.654988,29.5 1.52995,1.69058 3.819169,1.82874 30.3,1.82874 20.946122,0 28.967532,-0.32252 29.845012,-1.2 z M 68.682656,244.34932 C 68.307195,243.97386 68,232.09677 68,217.95578 c 0,-20.57824 0.274114,-25.93839 1.373115,-26.85047 0.968554,-0.80383 8.99723,-1.06088 27.25,-0.87245 L 122.5,190.5 l 0,27 0,27 -26.567344,0.26599 c -14.612039,0.14629 -26.874539,-0.0412 -27.25,-0.41667 z"
       id="path4621"
       inkscape:connector-curvature="0" />
    <path
       style="fill:#09a309"
       d="M 0,157 0,0 l 156,0 156,0 0,157 0,157 -156,0 -156,0 0,-157 z m 246.68555,91.82569 2.31445,-2.17432 0,-29.1707 c 0,-28.3766 -0.0573,-29.22255 -2.10305,-31.07568 -1.93064,-1.74882 -4.36956,-1.94598 -29.75,-2.40499 L 189.5,183.5 l 0,-26 0,-26 27.83979,-0.5 c 27.77489,-0.49883 27.84424,-0.5055 29.75,-2.86078 C 248.86938,125.93986 249,123.84477 249,97.5 249,71.154156 248.86944,69.060229 247.0896,66.860784 L 245.1792,64.5 216.77912,64.207 c -27.62967,-0.285053 -28.47303,-0.235612 -31.0896,1.82258 L 183,68.14516 183,96.07258 183,124 l -27,0 -27,0 0,-27.389216 c 0,-25.470529 -0.13383,-27.554595 -1.9104,-29.75 L 125.1792,64.5 96.779123,64.207 C 69.149453,63.921947 68.306091,63.971388 65.689525,66.02958 L 63,68.14516 63,97.5 l 0,29.35484 2.634859,2.07258 c 2.517107,1.97996 3.835456,2.07258 29.5,2.07258 L 122,131 l 0,26.92327 0,26.92328 2.57549,3.06079 2.57548,3.06079 27.17452,0.26594 L 181.5,191.5 182,219.14695 c 0.45901,25.38044 0.65617,27.81936 2.40499,29.75 1.85273,2.04536 2.70137,2.10305 30.93555,2.10305 28.43005,0 29.07843,-0.045 31.34501,-2.17431 z M 190.23283,217.75 190.5,192.5 l 25.25,-0.26717 25.25,-0.26717 0,25.51717 0,25.51717 -25.51717,0 -25.51717,0 0.26717,-25.25 z m -59.78286,-36.01977 c -0.26799,-0.69838 -0.36637,-12.06088 -0.21861,-25.25 L 130.5,132.5 l 25.25,-0.26717 25.25,-0.26717 0,25.51717 0,25.51717 -25.03138,0 c -19.3105,0 -25.14275,-0.2902 -25.51865,-1.26977 z M 70.666667,123.33333 C 70.3,122.96667 70,111.31481 70,97.440322 70,75.359686 70.197248,72.138287 71.581787,71.606989 74.748256,70.391901 119.53148,70.931476 120.8,72.2 c 0.86854,0.868538 1.2,8.020669 1.2,25.893011 0,21.594309 -0.1985,24.769179 -1.58179,25.299999 -2.16169,0.82952 -48.918432,0.77343 -49.751543,-0.0597 z m 120.000003,0 C 190.3,122.96667 190,111.31481 190,97.440322 190,75.359686 190.19725,72.138287 191.58179,71.606989 194.74826,70.391901 239.53148,70.931476 240.8,72.2 c 0.86854,0.868538 1.2,8.020669 1.2,25.893011 0,21.594309 -0.1985,24.769179 -1.58179,25.299999 -2.16169,0.82952 -48.91843,0.77343 -49.75154,-0.0597 z M 125.8,247.8 c 0.8745,-0.8745 1.2,-8.5765 1.2,-28.39424 l 0,-27.19425 -2.90121,-3.10575 L 121.19758,186 94.59879,186 C 69.333333,186 67.899745,186.10026 66,188 c -1.90363,1.90363 -2,3.33333 -2,29.67126 0,24.34507 0.198935,27.89108 1.654988,29.5 1.52995,1.69058 3.819169,1.82874 30.3,1.82874 20.946122,0 28.967532,-0.32252 29.845012,-1.2 z M 68.682656,244.34932 C 68.307195,243.97386 68,232.09677 68,217.95578 c 0,-20.57824 0.274114,-25.93839 1.373115,-26.85047 0.968554,-0.80383 8.99723,-1.06088 27.25,-0.87245 L 122.5,190.5 l 0,27 0,27 -26.567344,0.26599 c -14.612039,0.14629 -26.874539,-0.0412 -27.25,-0.41667 z"
       id="path4619"
       inkscape:connector-curvature="0" />
    <path
       style="fill:#272327"
       d="M 0,157 0,0 l 156,0 156,0 0,157 0,157 -156,0 -156,0 0,-157 z m 126.68555,91.82569 C 128.99734,246.65387 129,246.61933 129,218.80908 l 0,-27.84229 26.25,0.26661 26.25,0.2666 0.5,27.64695 c 0.45901,25.38044 0.65617,27.81936 2.40499,29.75 1.85273,2.04536 2.70137,2.10305 30.93555,2.10305 28.43005,0 29.07843,-0.045 31.34501,-2.17431 L 249,246.65137 l 0,-29.1707 c 0,-28.3766 -0.0573,-29.22255 -2.10305,-31.07568 -1.93064,-1.74882 -4.36956,-1.94598 -29.75,-2.40499 L 189.5,183.5 l 0,-26 0,-26 27.83979,-0.5 c 27.77489,-0.49883 27.84424,-0.5055 29.75,-2.86078 C 248.86938,125.93986 249,123.84477 249,97.5 249,71.154156 248.86944,69.060229 247.0896,66.860784 L 245.1792,64.5 216.77912,64.207 c -27.62967,-0.285053 -28.47303,-0.235612 -31.0896,1.82258 L 183,68.14516 183,96.07258 183,124 l -27,0 -27,0 0,-27.389216 c 0,-25.470529 -0.13383,-27.554595 -1.9104,-29.75 L 125.1792,64.5 96.779123,64.207 C 69.149453,63.921947 68.306091,63.971388 65.689525,66.02958 L 63,68.14516 63,97.5 l 0,29.35484 2.634859,2.07258 c 2.517107,1.97996 3.835456,2.07258 29.5,2.07258 L 122,131 l 0,26.5 0,26.5 -26.944236,0 -26.944237,0 -2.805763,2.41342 -2.805764,2.41341 0,29.17494 0,29.17494 2.360784,1.91164 C 67.0621,250.87087 69.151759,251 95.796333,251 c 27.962077,0 28.624387,-0.0466 30.889217,-2.17431 z M 70.666667,243.33333 C 70.3,242.96667 70,231.25907 70,217.31645 l 0,-25.35021 25.75,0.26688 25.75,0.26688 0.26806,24.37577 c 0.18853,17.1428 -0.0704,24.78354 -0.87244,25.75 C 119.98569,243.72216 114.86026,244 95.544222,244 82.228233,244 71.033333,243.7 70.666667,243.33333 z M 190.23283,217.75 190.5,192.5 l 25.25,-0.26717 25.25,-0.26717 0,25.51717 0,25.51717 -25.51717,0 -25.51717,0 0.26717,-25.25 z m -59.78286,-36.01977 c -0.26799,-0.69838 -0.36637,-12.06088 -0.21861,-25.25 L 130.5,132.5 l 25.25,-0.26717 25.25,-0.26717 0,25.51717 0,25.51717 -25.03138,0 c -19.3105,0 -25.14275,-0.2902 -25.51865,-1.26977 z M 70.666667,123.33333 C 70.3,122.96667 70,111.31481 70,97.440322 70,75.359686 70.197248,72.138287 71.581787,71.606989 74.748256,70.391901 119.53148,70.931476 120.8,72.2 c 0.86854,0.868538 1.2,8.020669 1.2,25.893011 0,21.594309 -0.1985,24.769179 -1.58179,25.299999 -2.16169,0.82952 -48.918432,0.77343 -49.751543,-0.0597 z m 120.000003,0 C 190.3,122.96667 190,111.31481 190,97.440322 190,75.359686 190.19725,72.138287 191.58179,71.606989 194.74826,70.391901 239.53148,70.931476 240.8,72.2 c 0.86854,0.868538 1.2,8.020669 1.2,25.893011 0,21.594309 -0.1985,24.769179 -1.58179,25.299999 -2.16169,0.82952 -48.91843,0.77343 -49.75154,-0.0597 z"
       id="path4617"
       inkscape:connector-curvature="0" />
  </g>
</svg>
